<svg xmlns="http://www.w3.org/2000/svg" width="951.09765625" height="168" viewBox="0 0 951.09765625 168">
  
  <rect x="0" y="0" width="951.09765625" height="168" fill="#FFFFFF"/>
  <g transform="translate(24.000,24.000)">
  <g id="ltbgmark">
    <rect x="0" y="22.800" width="74.400" height="74.400" rx="9.000"
          fill="rgba(148,163,184,0.45)"
          transform="rotate(45 37.200 60.000)"/>
    <rect x="45.600" y="22.800" width="74.400" height="74.400" rx="9.000"
          fill="none" stroke="#3B82F6" stroke-width="4.500"
          transform="rotate(45 82.800 60.000)"/>
    <circle cx="60.000" cy="60.000" r="26.520" fill="#3B82F6" opacity="0.65" filter="url(#ltbgblurBlue)"/>
    <circle cx="60.000" cy="60.000" r="13.260" fill="#FFFFFF" opacity="0.95" filter="url(#ltbgblurWhite)"/>
    <circle cx="60.000" cy="60.000" r="7.800" fill="#FFFFFF"/>
  </g>
  <defs>
    <filter id="ltbgblurBlue" x="-200%" y="-200%" width="500%" height="500%">
      <feGaussianBlur stdDeviation="19.500"/>
    </filter>
    <filter id="ltbgblurWhite" x="-200%" y="-200%" width="500%" height="500%">
      <feGaussianBlur stdDeviation="9.600"/>
    </filter>
  </defs></g>
  <g id="ltbgwordmark-latent" fill="#1E293B">
    <path transform="translate(184.000,117.442) scale(0.044922,-0.044922)" d="M96 0V1490H456V306H1116V0Z"/><path transform="translate(233.720,117.442) scale(0.044922,-0.044922)" d="M5 0 517 1490H991L1506 0H1104L902 655Q853 819 805.0 986.0Q757 1153 707 1348H804Q752 1153 703.5 986.0Q655 819 604 655L396 0ZM356 287V568H1155V287Z"/><path transform="translate(299.296,117.442) scale(0.044922,-0.044922)" d="M42 1184V1490H1279V1184H841V0H481V1184Z"/><path transform="translate(356.338,117.442) scale(0.044922,-0.044922)" d="M96 0V1490H1206V1184H456V897H1149V600H456V306H1206V0Z"/><path transform="translate(410.999,117.442) scale(0.044922,-0.044922)" d="M96 0V1490H468L891 813Q915 776 950.0 714.0Q985 652 1024.0 581.0Q1063 510 1097 446L1055 349Q1051 423 1048.0 518.5Q1045 614 1043.5 703.0Q1042 792 1042 844V1490H1402V0H1029L641 620Q613 666 570.0 739.0Q527 812 476.5 903.0Q426 994 373 1092L441 1122Q448 1015 451.0 916.0Q454 817 455.0 740.5Q456 664 456 621V0Z"/><path transform="translate(475.992,117.442) scale(0.044922,-0.044922)" d="M42 1184V1490H1279V1184H841V0H481V1184Z"/>
  </g>
  <g id="ltbgwordmark-schema" fill="#3B82F6">
    <path transform="translate(535.334,117.442) scale(0.044922,-0.044922)" d="M689 -24Q491 -24 352.0 36.5Q213 97 140.0 212.5Q67 328 67 492H410Q412 421 447.0 370.0Q482 319 544.5 292.0Q607 265 692 265Q769 265 825.5 285.0Q882 305 913.5 341.5Q945 378 945 427Q945 469 918.5 500.5Q892 532 835.5 555.5Q779 579 689 598L536 629Q318 674 207.0 780.5Q96 887 96 1050Q96 1189 169.5 1293.0Q243 1397 375.0 1455.5Q507 1514 682 1514Q861 1514 990.0 1455.5Q1119 1397 1190.5 1288.0Q1262 1179 1267 1026H934Q927 1119 860.5 1172.0Q794 1225 687 1225Q620 1225 567.5 1205.0Q515 1185 485.5 1149.5Q456 1114 456 1067Q456 1026 481.0 996.5Q506 967 559.0 945.0Q612 923 697 906L828 880Q952 855 1041.5 817.5Q1131 780 1188.5 728.0Q1246 676 1273.5 607.5Q1301 539 1301 453Q1301 303 1228.0 196.5Q1155 90 1018.0 33.0Q881 -24 689 -24Z"/><path transform="translate(594.487,117.442) scale(0.044922,-0.044922)" d="M768 -24Q564 -24 401.5 67.5Q239 159 145.5 331.0Q52 503 52 744Q52 987 145.5 1159.5Q239 1332 401.5 1423.0Q564 1514 768 1514Q904 1514 1020.0 1473.5Q1136 1433 1224.5 1358.5Q1313 1284 1368.5 1180.0Q1424 1076 1441 947H1078Q1067 1007 1040.5 1054.0Q1014 1101 975.0 1133.5Q936 1166 885.0 1183.0Q834 1200 774 1200Q659 1200 579.0 1145.0Q499 1090 456.5 988.0Q414 886 414 744Q414 603 456.0 501.5Q498 400 578.5 345.0Q659 290 774 290Q834 290 884.5 306.5Q935 323 974.0 356.0Q1013 389 1039.5 435.5Q1066 482 1079 541H1441Q1424 413 1368.5 309.0Q1313 205 1224.0 130.5Q1135 56 1019.5 16.0Q904 -24 768 -24Z"/><path transform="translate(659.121,117.442) scale(0.044922,-0.044922)" d="M96 0V1490H456V911H1023V1490H1383V0H1023V605H456V0Z"/><path transform="translate(723.260,117.442) scale(0.044922,-0.044922)" d="M96 0V1490H1206V1184H456V897H1149V600H456V306H1206V0Z"/><path transform="translate(777.921,117.442) scale(0.044922,-0.044922)" d="M96 0V1490H628L820 905Q836 852 858.0 775.0Q880 698 903.0 613.5Q926 529 946.0 452.0Q966 375 978 323H887Q899 375 918.5 452.0Q938 529 961.0 613.5Q984 698 1005.5 775.0Q1027 852 1042 905L1232 1490H1765V0H1412V645Q1412 695 1414.0 770.0Q1416 845 1418.5 932.0Q1421 1019 1423.5 1108.0Q1426 1197 1426 1276H1468Q1446 1193 1421.0 1103.0Q1396 1013 1372.5 926.5Q1349 840 1328.0 767.5Q1307 695 1291 645L1077 0H786L568 645Q553 695 531.0 767.5Q509 840 485.0 926.5Q461 1013 435.5 1103.0Q410 1193 387 1276H435Q436 1197 438.0 1108.0Q440 1019 442.5 932.0Q445 845 447.0 770.0Q449 695 449 645V0Z"/><path transform="translate(859.221,117.442) scale(0.044922,-0.044922)" d="M5 0 517 1490H991L1506 0H1104L902 655Q853 819 805.0 986.0Q757 1153 707 1348H804Q752 1153 703.5 986.0Q655 819 604 655L396 0ZM356 287V568H1155V287Z"/>
  </g>
</svg>